HIERARCHY
ROOT Hips
{
  OFFSET 0.000000 0.000000 0.000000
  CHANNELS 6 Xposition Yposition Zposition Zrotation Xrotation Yrotation
  JOINT Spine
  {
    OFFSET 0.000000 10.000000 0.000000
    CHANNELS 3 Zrotation Xrotation Yrotation
    JOINT Spine1
    {
      OFFSET 0.000000 10.000000 0.000000
      CHANNELS 3 Zrotation Xrotation Yrotation
      JOINT Neck
      {
        OFFSET 0.000000 10.000000 0.000000
        CHANNELS 3 Zrotation Xrotation Yrotation
        JOINT Head
        {
          OFFSET 0.000000 10.000000 0.000000
          CHANNELS 3 Zrotation Xrotation Yrotation
          End Site
          {
            OFFSET 0.0 -5.0 0.0
          }
        }
      }
      JOINT LeftShoulder
      {
        OFFSET -5.000000 0.000000 0.000000
        CHANNELS 3 Zrotation Xrotation Yrotation
        JOINT LeftArm
        {
          OFFSET -10.000000 0.000000 0.000000
          CHANNELS 3 Zrotation Xrotation Yrotation
          JOINT LeftForeArm
          {
            OFFSET -10.000000 0.000000 0.000000
            CHANNELS 3 Zrotation Xrotation Yrotation
            JOINT LeftHand
            {
              OFFSET -5.000000 0.000000 0.000000
              CHANNELS 3 Zrotation Xrotation Yrotation
              End Site
              {
                OFFSET 0.0 -5.0 0.0
              }
            }
          }
        }
      }
      JOINT RightShoulder
      {
        OFFSET 5.000000 0.000000 0.000000
        CHANNELS 3 Zrotation Xrotation Yrotation
        JOINT RightArm
        {
          OFFSET 10.000000 0.000000 0.000000
          CHANNELS 3 Zrotation Xrotation Yrotation
          JOINT RightForeArm
          {
            OFFSET 10.000000 0.000000 0.000000
            CHANNELS 3 Zrotation Xrotation Yrotation
            JOINT RightHand
            {
              OFFSET 5.000000 0.000000 0.000000
              CHANNELS 3 Zrotation Xrotation Yrotation
              End Site
              {
                OFFSET 0.0 -5.0 0.0
              }
            }
          }
        }
      }
    }
  }
  JOINT LeftUpLeg
  {
    OFFSET -5.000000 -5.000000 0.000000
    CHANNELS 3 Zrotation Xrotation Yrotation
    JOINT LeftLeg
    {
      OFFSET 0.000000 -20.000000 0.000000
      CHANNELS 3 Zrotation Xrotation Yrotation
      JOINT LeftFoot
      {
        OFFSET 0.000000 -20.000000 0.000000
        CHANNELS 3 Zrotation Xrotation Yrotation
        End Site
        {
          OFFSET 0.0 -5.0 0.0
        }
      }
    }
  }
  JOINT RightUpLeg
  {
    OFFSET 5.000000 -5.000000 0.000000
    CHANNELS 3 Zrotation Xrotation Yrotation
    JOINT RightLeg
    {
      OFFSET 0.000000 -20.000000 0.000000
      CHANNELS 3 Zrotation Xrotation Yrotation
      JOINT RightFoot
      {
        OFFSET 0.000000 -20.000000 0.000000
        CHANNELS 3 Zrotation Xrotation Yrotation
        End Site
        {
          OFFSET 0.0 -5.0 0.0
        }
      }
    }
  }
}
MOTION
Frames: 6
Frame Time: 0.03333333333333333
48.627033 -10.850759 -0.047300 0.000000 0.000000 0.000000 0.000000 -40.327600 179.192343 0.000000 -40.327600 179.192343 0.000000 -3.960279 179.330123 0.000000 -3.960279 179.330123 0.000000 4.923791 100.883149 0.000000 13.021871 3.134548 0.000000 16.745371 3.733118 0.000000 33.398815 6.346812 0.000000 -4.923791 -79.116851 0.000000 15.930450 -8.251027 0.000000 20.771984 -9.190640 0.000000 42.448074 -14.056940 0.000000 30.816877 154.100983 0.000000 73.664377 166.251938 0.000000 71.466622 174.531520 0.000000 41.180194 -37.297383 0.000000 30.892098 -1.343958 0.000000 29.187341 -1.028669
49.601147 -12.091985 -0.049769 0.000000 0.000000 0.000000 0.000000 -41.297502 178.859919 0.000000 -41.297502 178.859919 0.000000 -4.026714 179.319994 0.000000 -4.026714 179.319994 0.000000 4.810081 100.382857 0.000000 13.341016 3.253509 0.000000 16.286970 3.475668 0.000000 31.049383 5.372497 0.000000 -4.810081 -79.617143 0.000000 15.447287 -7.404119 0.000000 19.099761 -8.170320 0.000000 37.028872 -11.703133 0.000000 48.102234 130.786801 0.000000 66.091506 8.757892 0.000000 68.464503 5.246216 0.000000 44.330960 -44.945177 0.000000 33.185794 -1.882840 0.000000 30.738498 -1.166921
50.097957 -12.858725 -0.053735 0.000000 0.000000 0.000000 0.000000 -40.268510 178.526749 0.000000 -40.268510 178.526749 0.000000 -4.113884 179.266319 0.000000 -4.113884 179.266319 0.000000 4.738898 103.001532 0.000000 12.792909 2.869529 0.000000 16.075452 3.224151 0.000000 30.465611 5.344907 0.000000 -4.738898 -76.998468 0.000000 15.107373 -6.747146 0.000000 18.638974 -7.632322 0.000000 35.750265 -11.222463 0.000000 46.686829 134.725149 0.000000 68.354453 9.097609 0.000000 70.198358 5.664091 0.000000 45.394156 -48.765958 0.000000 33.751274 -2.171708 0.000000 30.520969 -1.309442
50.281527 -13.388200 -0.051846 0.000000 0.000000 0.000000 0.000000 -38.195465 178.407327 0.000000 -38.195465 178.407327 0.000000 -4.197719 179.209570 0.000000 -4.197719 179.209570 0.000000 4.598747 103.527840 0.000000 12.425629 2.567893 0.000000 15.838271 3.073659 0.000000 30.296157 5.532064 0.000000 -4.598747 -76.472160 0.000000 14.340430 -5.822427 0.000000 18.027006 -6.635845 0.000000 34.670424 -10.191959 0.000000 45.815894 136.963087 0.000000 63.826624 6.205287 0.000000 57.110173 2.968680 0.000000 49.583078 -62.760153 0.000000 34.454637 -2.326320 0.000000 27.599378 -1.320171
50.379739 -14.430985 -0.041772 0.000000 0.000000 0.000000 0.000000 -38.080779 178.255411 0.000000 -38.080779 178.255411 0.000000 -4.159249 179.147570 0.000000 -4.159249 179.147570 0.000000 4.512300 100.543163 0.000000 13.815575 2.769034 0.000000 16.715797 3.108030 0.000000 29.596668 5.585211 0.000000 -4.512300 -79.456837 0.000000 15.251466 -5.716100 0.000000 19.238922 -6.395941 0.000000 37.577261 -10.004588 0.000000 43.088377 141.624140 0.000000 66.838342 6.424346 0.000000 54.822391 2.719546 0.000000 49.711984 -111.585162 0.000000 39.345729 -2.934609 0.000000 25.731757 -1.597935
50.577450 -14.646878 -0.049095 0.000000 0.000000 0.000000 0.000000 -38.942216 178.110022 0.000000 -38.942216 178.110022 0.000000 -4.189505 179.366011 0.000000 -4.189505 179.366011 0.000000 4.739456 100.119942 0.000000 14.254705 2.954218 0.000000 18.941381 3.352246 0.000000 39.749349 7.417474 0.000000 -4.739456 -79.880058 0.000000 18.375859 -6.924363 0.000000 25.325681 -8.325032 0.000000 57.875590 -18.158597 0.000000 43.911653 141.351492 0.000000 74.023717 8.307173 0.000000 65.833057 4.423254 0.000000 48.817546 -112.036923 0.000000 40.432593 -3.636649 0.000000 27.642484 -2.277287
